<svg width="12" height="13" viewBox="0 0 12 13" fill="none" xmlns="http://www.w3.org/2000/svg">
<path d="M1.27172 13.0009H10.7269C10.8837 13.0009 11.034 12.9387 11.1448 12.8278C11.2556 12.717 11.3179 12.5667 11.3179 12.41V5.172C11.3799 5.11591 11.4391 5.05674 11.4952 4.99472C11.7187 4.71009 11.8739 4.37792 11.9488 4.02383C12.0237 3.66973 12.0163 3.30317 11.9272 2.95239L11.3002 0.447941C11.2683 0.32004 11.1945 0.206477 11.0906 0.125311C10.9868 0.0441449 10.8588 3.64162e-05 10.7269 0H1.27172C1.1399 3.64162e-05 1.01188 0.0441449 0.908013 0.125311C0.804146 0.206477 0.730398 0.32004 0.698498 0.447941L0.0732717 2.95121C-0.0161257 3.30185 -0.0238271 3.66834 0.050761 4.02243C0.125349 4.37652 0.280235 4.70875 0.503484 4.99354C0.55958 5.05556 0.61875 5.11473 0.68077 5.17082V12.41C0.68077 12.5667 0.74303 12.717 0.853855 12.8278C0.96468 12.9387 1.11499 13.0009 1.27172 13.0009ZM6.59028 11.819H5.40838V8.86427H6.59028V11.819ZM10.2654 1.1819L10.7795 3.23782C10.8237 3.41462 10.827 3.59917 10.7892 3.77743C10.7514 3.9557 10.6734 4.12301 10.5612 4.26663C10.4491 4.41025 10.3056 4.52641 10.1418 4.60629C9.97804 4.68617 9.79819 4.72766 9.61595 4.72761C9.31591 4.7257 9.02734 4.61203 8.80661 4.40878C8.58588 4.20553 8.44883 3.92731 8.42223 3.62844L8.21776 1.1819H10.2654ZM4.96694 1.1819H7.03172L7.21846 3.42752C7.23245 3.59292 7.21195 3.75942 7.15825 3.91648C7.10455 4.07354 7.01882 4.21774 6.9065 4.33995C6.79418 4.46216 6.6577 4.55972 6.50572 4.62645C6.35373 4.69318 6.18955 4.72763 6.02356 4.72761H5.9751C5.80911 4.72763 5.64493 4.69318 5.49294 4.62645C5.34096 4.55972 5.20449 4.46216 5.09216 4.33995C4.97984 4.21774 4.89411 4.07354 4.84041 3.91648C4.78671 3.75942 4.76621 3.59292 4.7802 3.42752L4.96694 1.1819ZM4.22293 5.14128C4.44621 5.38325 4.71714 5.57642 5.01868 5.70863C5.32022 5.84084 5.64585 5.90923 5.9751 5.90951H6.02356C6.35281 5.90923 6.67844 5.84084 6.97999 5.70863C7.28153 5.57642 7.55245 5.38325 7.77573 5.14128C7.79405 5.12118 7.80646 5.09636 7.82419 5.07627C8.10097 5.40555 8.46326 5.65206 8.87115 5.78865C9.27905 5.92524 9.71673 5.94662 10.136 5.85042V11.819H7.77218V8.27332C7.77218 8.11659 7.70992 7.96628 7.5991 7.85545C7.48827 7.74463 7.33796 7.68237 7.18123 7.68237H4.81743C4.6607 7.68237 4.51039 7.74463 4.39956 7.85545C4.28874 7.96628 4.22648 8.11659 4.22648 8.27332V11.819H1.86267V5.85042C2.28199 5.94655 2.7197 5.92508 3.1276 5.78839C3.5355 5.65169 3.89776 5.40507 4.17447 5.07568C4.1922 5.09577 4.20461 5.12059 4.22293 5.14128ZM1.21913 3.23782L1.73325 1.1819H3.7809L3.57643 3.62844C3.54983 3.92731 3.41278 4.20553 3.19205 4.40878C2.97132 4.61203 2.68276 4.7257 2.38271 4.72761C2.20047 4.72766 2.02062 4.68617 1.85682 4.60629C1.69302 4.52641 1.54959 4.41025 1.43741 4.26663C1.32524 4.12301 1.24728 3.9557 1.20945 3.77743C1.17163 3.59917 1.17494 3.41462 1.21913 3.23782Z" fill="#636363"/>
</svg>
