<svg width="16" height="15" viewBox="0 0 16 15" fill="none" xmlns="http://www.w3.org/2000/svg">
<path d="M14.6667 10.78V12.78C14.6675 12.9657 14.6294 13.1494 14.555 13.3196C14.4807 13.4897 14.3716 13.6424 14.2348 13.7679C14.0979 13.8934 13.9364 13.989 13.7605 14.0485C13.5847 14.108 13.3983 14.13 13.2134 14.1133C11.1619 13.8904 9.19137 13.1894 7.46004 12.0667C5.84926 11.0431 4.48359 9.67745 3.46004 8.06667C2.33336 6.32747 1.6322 4.34733 1.41337 2.28667C1.39671 2.10231 1.41862 1.91651 1.4777 1.74108C1.53679 1.56566 1.63175 1.40446 1.75655 1.26775C1.88134 1.13103 2.03324 1.0218 2.20256 0.947013C2.37189 0.872222 2.55493 0.833506 2.74004 0.833332H4.74004C5.06357 0.830148 5.37723 0.944718 5.62254 1.15569C5.86786 1.36666 6.02809 1.65963 6.07337 1.98C6.15779 2.62004 6.31434 3.24848 6.54004 3.85333C6.62973 4.09195 6.64915 4.35127 6.59597 4.60059C6.5428 4.8499 6.41928 5.07874 6.24004 5.26L5.39337 6.10667C6.34241 7.7757 7.72434 9.15763 9.39337 10.1067L10.24 9.26C10.4213 9.08076 10.6501 8.95723 10.8994 8.90406C11.1488 8.85089 11.4081 8.8703 11.6467 8.96C12.2516 9.1857 12.88 9.34225 13.52 9.42667C13.8439 9.47235 14.1396 9.63547 14.3511 9.885C14.5625 10.1345 14.6748 10.453 14.6667 10.78Z" stroke="#475467" stroke-width="1.33333" stroke-linecap="round" stroke-linejoin="round"/>
</svg>
