<svg width="13" height="10" viewBox="0 0 13 10" fill="none" xmlns="http://www.w3.org/2000/svg">
<path d="M11.005 0.82139C10.1765 0.441204 9.28795 0.1611 8.35894 0.000672972C8.34203 -0.00242323 8.32513 0.00531434 8.31641 0.0207898C8.20214 0.224031 8.07556 0.489176 7.98693 0.697579C6.98772 0.547988 5.99364 0.547988 5.01492 0.697579C4.92627 0.484544 4.7951 0.224031 4.68031 0.0207898C4.6716 0.00583068 4.6547 -0.00190689 4.63778 0.000672972C3.70928 0.160588 2.82076 0.440692 1.99167 0.82139C1.9845 0.824485 1.97834 0.829648 1.97426 0.836349C0.28892 3.35421 -0.172765 5.81019 0.0537226 8.23571C0.0547474 8.24758 0.0614087 8.25893 0.0706323 8.26614C1.18257 9.08273 2.25967 9.57847 3.31678 9.90705C3.33369 9.91222 3.35162 9.90603 3.36239 9.89209C3.61244 9.55062 3.83535 9.19055 4.02647 8.8119C4.03774 8.78973 4.02698 8.76342 4.00393 8.75465C3.65036 8.62053 3.3137 8.457 2.98985 8.27131C2.96424 8.25635 2.96219 8.21971 2.98575 8.20217C3.0539 8.1511 3.12207 8.09797 3.18714 8.04432C3.19892 8.03452 3.21532 8.03245 3.22916 8.03864C5.3567 9.01 7.66 9.01 9.76243 8.03864C9.77627 8.03194 9.79268 8.03401 9.80497 8.04381C9.87006 8.09745 9.93821 8.1511 10.0069 8.20217C10.0304 8.21971 10.0289 8.25635 10.0033 8.27131C9.67943 8.46061 9.34277 8.62053 8.98869 8.75414C8.96564 8.76291 8.95539 8.78973 8.96667 8.8119C9.16189 9.19002 9.38479 9.55009 9.63023 9.89158C9.64049 9.90603 9.65893 9.91222 9.67585 9.90705C10.7381 9.57847 11.8152 9.08273 12.9271 8.26614C12.9368 8.25893 12.943 8.24809 12.944 8.23622C13.2151 5.43205 12.49 2.99622 11.0219 0.836862C11.0184 0.829648 11.0122 0.824485 11.005 0.82139ZM4.34418 6.75882C3.70364 6.75882 3.17586 6.17076 3.17586 5.44857C3.17586 4.72637 3.69341 4.13831 4.34418 4.13831C5.00006 4.13831 5.52273 4.73153 5.51248 5.44857C5.51248 6.17076 4.99493 6.75882 4.34418 6.75882ZM8.66382 6.75882C8.02331 6.75882 7.49552 6.17076 7.49552 5.44857C7.49552 4.72637 8.01305 4.13831 8.66382 4.13831C9.31972 4.13831 9.84237 4.73153 9.83214 5.44857C9.83214 6.17076 9.31972 6.75882 8.66382 6.75882Z" fill="#636363"/>
</svg>
