<svg width="12" height="13" viewBox="0 0 12 13" fill="none" xmlns="http://www.w3.org/2000/svg">
<path d="M11.3375 0.5H0.6625C0.2965 0.5 0 0.7965 0 1.1625V11.838C0 12.2035 0.2965 12.5 0.6625 12.5H6.41V7.853H4.846V6.042H6.41V4.7065C6.41 3.1565 7.3565 2.3125 8.7395 2.3125C9.402 2.3125 9.971 2.362 10.137 2.384V4.004L9.178 4.0045C8.426 4.0045 8.2805 4.362 8.2805 4.886V6.0425H10.074L9.8405 7.8535H8.2805V12.5H11.3385C11.7035 12.5 12 12.2035 12 11.8375V1.1625C12 0.7965 11.7035 0.5 11.3375 0.5Z" fill="#636363"/>
</svg>
