<svg width="12" height="12" viewBox="0 0 12 12" fill="none" xmlns="http://www.w3.org/2000/svg">
<path d="M6 0C4.81331 0 3.65328 0.351894 2.66658 1.01118C1.67989 1.67047 0.910851 2.60754 0.456725 3.7039C0.00259972 4.80026 -0.11622 6.00665 0.115291 7.17054C0.346802 8.33443 0.918247 9.40352 1.75736 10.2426C2.59648 11.0818 3.66557 11.6532 4.82946 11.8847C5.99334 12.1162 7.19974 11.9974 8.2961 11.5433C9.39246 11.0891 10.3295 10.3201 10.9888 9.33342C11.6481 8.34673 12 7.18669 12 6C11.9981 4.40928 11.3654 2.88424 10.2406 1.75943C9.11576 0.63462 7.59072 0.00187662 6 0ZM6 10.9091C5.02907 10.9091 4.07995 10.6212 3.27266 10.0818C2.46536 9.54234 1.83615 8.77565 1.46459 7.87863C1.09304 6.98161 0.99582 5.99455 1.18524 5.04228C1.37466 4.09001 1.8422 3.2153 2.52875 2.52875C3.2153 1.8422 4.09001 1.37465 5.04228 1.18524C5.99456 0.995817 6.98161 1.09303 7.87863 1.46459C8.77565 1.83615 9.54234 2.46536 10.0818 3.27265C10.6212 4.07995 10.9091 5.02907 10.9091 6C10.9076 7.30153 10.39 8.54933 9.46966 9.46966C8.54934 10.39 7.30153 10.9076 6 10.9091ZM9.27273 6C9.27273 6.14466 9.21526 6.2834 9.11297 6.38569C9.01068 6.48799 8.87194 6.54545 8.72727 6.54545H6C5.85534 6.54545 5.7166 6.48799 5.61431 6.38569C5.51201 6.2834 5.45455 6.14466 5.45455 6V2.72727C5.45455 2.58261 5.51201 2.44387 5.61431 2.34158C5.7166 2.23929 5.85534 2.18182 6 2.18182C6.14466 2.18182 6.2834 2.23929 6.38569 2.34158C6.48799 2.44387 6.54545 2.58261 6.54545 2.72727V5.45454H8.72727C8.87194 5.45454 9.01068 5.51201 9.11297 5.6143C9.21526 5.7166 9.27273 5.85534 9.27273 6Z" fill="#636363"/>
</svg>
