<svg width="12" height="12" viewBox="0 0 12 12" fill="none" xmlns="http://www.w3.org/2000/svg">
<path d="M5.99976 1.08101C7.60187 1.08101 7.79145 1.08721 8.42424 1.11602C9.00917 1.1427 9.32688 1.24034 9.53836 1.32251C9.81844 1.43135 10.0183 1.56138 10.2283 1.7712C10.4384 1.98126 10.5684 2.18108 10.677 2.46116C10.7592 2.67264 10.8568 2.99035 10.8835 3.57527C10.9123 4.20783 10.9185 4.39764 10.9185 5.99975C10.9185 7.60186 10.9123 7.79144 10.8835 8.42423C10.8568 9.00916 10.7592 9.32686 10.677 9.53835C10.5682 9.81843 10.4381 10.0182 10.2283 10.2283C10.0183 10.4384 9.81844 10.5684 9.53836 10.677C9.32688 10.7592 9.00917 10.8568 8.42424 10.8835C7.79169 10.9123 7.60187 10.9185 5.99976 10.9185C4.39765 10.9185 4.20784 10.9123 3.57528 10.8835C2.99035 10.8568 2.67265 10.7592 2.46116 10.677C2.18108 10.5682 1.98126 10.4381 1.77121 10.2283C1.56115 10.0182 1.43111 9.81843 1.32251 9.53835C1.24034 9.32686 1.1427 9.00916 1.11602 8.42423C1.08721 7.79168 1.08101 7.60186 1.08101 5.99975C1.08101 4.39764 1.08721 4.20807 1.11602 3.57527C1.1427 2.99035 1.24034 2.67264 1.32251 2.46116C1.43135 2.18108 1.56139 1.98126 1.77121 1.7712C1.98126 1.56115 2.18108 1.43111 2.46116 1.32251C2.67265 1.24034 2.99035 1.1427 3.57528 1.11602C4.20807 1.08721 4.39765 1.08101 5.99976 1.08101ZM5.99976 0C4.37026 0 4.16592 0.00690667 3.52598 0.0362005C2.88747 0.0652561 2.4514 0.166713 2.06962 0.315087C1.67499 0.468463 1.34037 0.67352 1.00695 1.00718C0.67352 1.34061 0.468225 1.67523 0.315088 2.06962C0.166713 2.45139 0.0652562 2.88747 0.0362005 3.52597C0.00690668 4.16591 0 4.37026 0 5.99975C0 7.62925 0.00690668 7.83359 0.0362005 8.47353C0.0652562 9.11204 0.166713 9.54812 0.315088 9.92989C0.468463 10.3245 0.67352 10.6591 1.00718 10.9926C1.34085 11.3262 1.67523 11.5313 2.06986 11.6847C2.4514 11.833 2.88771 11.9345 3.52622 11.9635C4.16616 11.9928 4.3705 11.9997 6 11.9997C7.6295 11.9997 7.83384 11.9928 8.47378 11.9635C9.11229 11.9345 9.5486 11.833 9.93014 11.6847C10.3248 11.5313 10.6594 11.3262 10.9928 10.9926C11.3265 10.6589 11.5315 10.3245 11.6849 9.92989C11.8333 9.54835 11.9347 9.11204 11.9638 8.47353C11.9931 7.83359 12 7.62925 12 5.99975C12 4.37026 11.9931 4.16591 11.9638 3.52597C11.9347 2.88747 11.8333 2.45115 11.6849 2.06962C11.5315 1.67499 11.3265 1.34037 10.9928 1.00695C10.6592 0.673281 10.3248 0.468225 9.93014 0.314849C9.54813 0.166713 9.11206 0.0652561 8.47355 0.0362005C7.83361 0.00690667 7.62926 0 5.99976 0Z" fill="#636363"/>
<path d="M5.99956 2.91943C4.29789 2.91943 2.9187 4.29886 2.9187 6.00029C2.9187 7.70171 4.29813 9.08114 5.99956 9.08114C7.70098 9.08114 9.08041 7.70171 9.08041 6.00029C9.08041 4.29886 7.70122 2.91943 5.99956 2.91943ZM5.99956 8.00013C4.89496 8.00013 3.99972 7.10464 3.99972 6.00029C3.99972 4.8957 4.8952 4.00045 5.99956 4.00045C7.10391 4.00045 7.9994 4.89593 7.9994 6.00029C7.9994 7.10488 7.10415 8.00013 5.99956 8.00013Z" fill="#636363"/>
<path d="M9.20238 3.51707C9.60001 3.51707 9.92235 3.19473 9.92235 2.79711C9.92235 2.39949 9.60001 2.07715 9.20238 2.07715C8.80476 2.07715 8.48242 2.39949 8.48242 2.79711C8.48242 3.19473 8.80476 3.51707 9.20238 3.51707Z" fill="#636363"/>
</svg>
