<svg width="12" height="12" viewBox="0 0 12 12" fill="none" xmlns="http://www.w3.org/2000/svg">
<path d="M9.81183 4.35458C10.2425 4.35458 10.6634 4.22689 11.0215 3.98764C11.3795 3.7484 11.6586 3.40835 11.8234 3.0105C11.9882 2.61266 12.0313 2.17488 11.9473 1.75252C11.8633 1.33017 11.6559 0.942214 11.3514 0.637715C11.0469 0.333215 10.659 0.125848 10.2366 0.041837C9.81424 -0.0421742 9.37646 0.000943379 8.97862 0.165737C8.58077 0.330531 8.24072 0.6096 8.00148 0.967654C7.76223 1.32571 7.63454 1.74666 7.63454 2.17729C7.63744 2.38263 7.66989 2.58648 7.73088 2.78258L3.85748 4.60279C3.57226 4.25672 3.18713 4.00716 2.75473 3.88823C2.32232 3.76929 1.86374 3.78678 1.44165 3.9383C1.01956 4.08982 0.654557 4.36798 0.396519 4.73477C0.138481 5.10156 0 5.53909 0 5.98755C0 6.43601 0.138481 6.87354 0.396519 7.24033C0.654557 7.60712 1.01956 7.88528 1.44165 8.0368C1.86374 8.18832 2.32232 8.20581 2.75473 8.08687C3.18713 7.96794 3.57226 7.71838 3.85748 7.37231L7.73088 9.19252C7.66989 9.38862 7.63744 9.59247 7.63454 9.79781C7.6333 10.3024 7.8069 10.7918 8.12583 11.1828C8.44475 11.5738 8.88929 11.8422 9.38381 11.9424C9.87834 12.0426 10.3923 11.9684 10.8383 11.7324C11.2842 11.4964 11.6347 11.1131 11.8299 10.6479C12.0252 10.1826 12.0532 9.66406 11.9093 9.18046C11.7653 8.69685 11.4583 8.27806 11.0404 7.99532C10.6224 7.71258 10.1195 7.58337 9.61703 7.62965C9.11458 7.67594 8.64369 7.89488 8.28446 8.24921L4.32778 6.39035C4.38221 6.12476 4.38221 5.85089 4.32778 5.5853L8.28446 3.72589C8.69088 4.12848 9.23977 4.35441 9.81183 4.35458ZM9.81183 1.08865C10.0271 1.08865 10.2376 1.15249 10.4166 1.27212C10.5957 1.39174 10.7352 1.56176 10.8176 1.76069C10.9 1.95961 10.9216 2.1785 10.8796 2.38968C10.8376 2.60085 10.7339 2.79483 10.5816 2.94708C10.4294 3.09933 10.2354 3.20301 10.0242 3.24502C9.81304 3.28702 9.59415 3.26547 9.39522 3.18307C9.1963 3.10067 9.02628 2.96114 8.90665 2.78211C8.78703 2.60308 8.72318 2.39261 8.72318 2.17729C8.72318 1.88857 8.83788 1.61166 9.04204 1.4075C9.2462 1.20334 9.5231 1.08865 9.81183 1.08865ZM2.19131 7.0762C1.976 7.0762 1.76552 7.01235 1.58649 6.89273C1.40746 6.7731 1.26793 6.60308 1.18553 6.40416C1.10314 6.20523 1.08158 5.98634 1.12358 5.77517C1.16559 5.56399 1.26927 5.37001 1.42152 5.21776C1.57377 5.06551 1.76775 4.96183 1.97893 4.91982C2.1901 4.87782 2.40899 4.89938 2.60792 4.98177C2.80684 5.06417 2.97686 5.2037 3.09649 5.38273C3.21611 5.56176 3.27996 5.77224 3.27996 5.98755C3.27996 6.27628 3.16526 6.55318 2.9611 6.75734C2.75694 6.9615 2.48004 7.0762 2.19131 7.0762ZM9.81183 8.70916C10.0271 8.70916 10.2376 8.77301 10.4166 8.89263C10.5957 9.01226 10.7352 9.18228 10.8176 9.3812C10.9 9.58013 10.9216 9.79902 10.8796 10.0102C10.8376 10.2214 10.7339 10.4153 10.5816 10.5676C10.4294 10.7198 10.2354 10.8235 10.0242 10.8655C9.81304 10.9075 9.59415 10.886 9.39522 10.8036C9.1963 10.7212 9.02628 10.5817 8.90665 10.4026C8.78703 10.2236 8.72318 10.0131 8.72318 9.79781C8.72318 9.50908 8.83788 9.23218 9.04204 9.02802C9.2462 8.82386 9.5231 8.70916 9.81183 8.70916Z" fill="#636363"/>
</svg>
