<svg width="12" height="15" viewBox="0 0 12 15" fill="none" xmlns="http://www.w3.org/2000/svg">
<path d="M11.9999 6.01586C12.002 5.22795 11.8489 4.44734 11.5493 3.71861C11.2498 2.98987 10.8096 2.32728 10.2539 1.76865C9.13175 0.640465 7.60736 0.00426899 6.01611 2.14058e-05C4.42486 -0.00422618 2.89709 0.623823 1.7689 1.746C0.640714 2.86819 0.00451816 4.39258 0.000270571 5.98383C-0.0138212 7.83244 0.522816 9.64339 1.54179 11.1859C2.56076 12.7284 4.01593 13.9325 5.72182 14.6449C5.80903 14.6844 5.9037 14.7046 5.99943 14.7043C6.09585 14.7045 6.19118 14.684 6.27903 14.6442C7.97973 13.934 9.4313 12.7349 10.4498 11.1988C11.4682 9.66274 12.0077 7.85888 11.9999 6.01586ZM5.99943 13.3029C4.59269 12.6836 3.39977 11.6633 2.56988 10.3695C1.73998 9.07577 1.30995 7.56606 1.33356 6.02921C1.33356 5.41648 1.45425 4.80975 1.68873 4.24366C1.92321 3.67757 2.2669 3.16321 2.70016 2.72994C3.13343 2.29668 3.64779 1.95299 4.21388 1.71851C4.77997 1.48403 5.3867 1.36334 5.99943 1.36334C6.61215 1.36334 7.21888 1.48403 7.78497 1.71851C8.35106 1.95299 8.86542 2.29668 9.29869 2.72994C9.73195 3.16321 10.0756 3.67757 10.3101 4.24366C10.5446 4.80975 10.6653 5.41648 10.6653 6.02921C10.6653 6.04322 10.6653 6.05923 10.6653 6.07258C10.6815 7.60234 10.2479 9.10314 9.41837 10.3886C8.58886 11.674 7.39998 12.6874 5.99943 13.3029ZM5.99943 3.35995C5.4715 3.35995 4.95542 3.5165 4.51647 3.8098C4.07751 4.1031 3.73538 4.51998 3.53335 5.00772C3.33132 5.49547 3.27846 6.03217 3.38146 6.54995C3.48445 7.06774 3.73867 7.54335 4.11198 7.91666C4.48528 8.28996 4.96089 8.54418 5.47868 8.64717C5.99646 8.75017 6.53316 8.69731 7.02091 8.49528C7.50865 8.29325 7.92553 7.95112 8.21883 7.51217C8.51213 7.07321 8.66868 6.55714 8.66868 6.02921C8.66868 5.32127 8.38746 4.64234 7.88688 4.14176C7.38629 3.64117 6.70736 3.35995 5.99943 3.35995ZM5.99943 7.36383C5.73546 7.36383 5.47742 7.28556 5.25795 7.13891C5.03847 6.99226 4.8674 6.78382 4.76639 6.53995C4.66537 6.29607 4.63894 6.02773 4.69044 5.76883C4.74194 5.50994 4.86905 5.27213 5.0557 5.08548C5.24235 4.89883 5.48016 4.77172 5.73905 4.72022C5.99794 4.66872 6.26629 4.69516 6.51017 4.79617C6.75404 4.89718 6.96248 5.06825 7.10913 5.28773C7.25578 5.5072 7.33405 5.76524 7.33405 6.02921C7.33405 6.38317 7.19344 6.72264 6.94315 6.97293C6.69286 7.22322 6.35339 7.36383 5.99943 7.36383Z" fill="#636363"/>
</svg>
