<svg width="12" height="12" viewBox="0 0 12 12" fill="none" xmlns="http://www.w3.org/2000/svg">
<path fill-rule="evenodd" clip-rule="evenodd" d="M11.336 7.613L10.12 8.0185L10.5405 9.276C10.7055 9.7855 10.436 10.3395 9.9255 10.504C9.3505 10.6665 8.8515 10.3435 8.694 9.891L8.274 8.632L5.7675 9.4705L6.1875 10.729C6.383 11.3305 5.9705 12 5.272 12C4.832 12 4.4715 11.718 4.342 11.343L3.921 10.085L2.7055 10.4895C2.138 10.6535 1.633 10.331 1.474 9.875C1.3095 9.366 1.5795 8.8115 2.0895 8.647L3.3055 8.2425L2.495 5.831L1.279 6.235C0.6015 6.427 0 5.94 0 5.3155C0 4.907 0.2545 4.5245 0.6635 4.3925L1.88 3.988L1.459 2.7305C1.294 2.2205 1.5645 1.666 2.075 1.5015C2.585 1.337 3.14 1.606 3.3055 2.116L3.7265 3.3735L6.232 2.535L5.8125 1.2765C5.611 0.6575 6.0545 0 6.734 0C7.1435 0 7.5265 0.2545 7.659 0.663L8.0795 1.9215L9.295 1.5165C9.805 1.3515 10.3605 1.622 10.5255 2.131C10.6915 2.64 10.4205 3.194 9.9105 3.359L8.694 3.7635L9.505 6.175L10.7215 5.7705C11.3425 5.57 12 6.0125 12 6.6895C12 7.099 11.745 7.481 11.336 7.613ZM6.84 4.399L4.335 5.2365L5.1445 7.6505L7.65 6.8135L6.84 4.399Z" fill="#636363"/>
</svg>
