<?xml version="1.0" encoding="UTF-8" standalone="no" ?>
<!DOCTYPE svg PUBLIC "-//W3C//DTD SVG 1.1//EN" "http://www.w3.org/Graphics/SVG/1.1/DTD/svg11.dtd">
<svg xmlns="http://www.w3.org/2000/svg" xmlns:xlink="http://www.w3.org/1999/xlink" version="1.1" width="640" height="640" viewBox="0 0 640 640" xml:space="preserve">
<desc>Created with Fabric.js 4.6.0</desc>
<defs>
</defs>
<g transform="matrix(2.6 0 0 2.6 320 309.62)" id="pvmpewpLge8V2p3NI8qbk"  >
<path style="stroke: none; stroke-width: 1; stroke-dasharray: none; stroke-linecap: butt; stroke-dashoffset: 0; stroke-linejoin: miter; stroke-miterlimit: 4; fill: rgb(248,220,129); fill-rule: nonzero; opacity: 1;" vector-effect="non-scaling-stroke"  transform=" translate(-121.66, -121.66)" d="M 242.949 93.714 C 242.067 90.999 239.72 89.02 236.895 88.61 L 161.91500000000002 77.71 L 128.38500000000002 9.768999999999991 C 127.12100000000002 7.208999999999991 124.51400000000002 5.587999999999991 121.66000000000003 5.587999999999991 C 118.80500000000002 5.587999999999991 116.19800000000002 7.208999999999991 114.93400000000003 9.768999999999991 L 81.404 77.71 L 6.422 88.61 C 3.596 89.021 1.249 91 0.367 93.714 C -0.515 96.429 0.22 99.40899999999999 2.2649999999999997 101.402 L 56.522 154.288 L 43.715 228.96 C 43.233000000000004 231.774 44.389 234.618 46.698 236.29500000000002 C 49.007 237.973 52.069 238.19500000000002 54.596000000000004 236.866 L 121.66 201.61200000000002 L 188.723 236.866 C 189.82000000000002 237.443 191.019 237.727 192.21200000000002 237.727 C 192.21900000000002 237.727 192.22600000000003 237.727 192.233 237.727 C 192.233 237.727 192.233 237.727 192.234 237.727 C 196.376 237.727 199.734 234.369 199.734 230.227 C 199.734 229.598 199.656 228.987 199.511 228.403 L 186.798 154.286 L 241.052 101.40100000000001 C 243.096 99.41 243.832 96.429 242.949 93.714 z M 173.504 146.299 C 171.736 148.02200000000002 170.929 150.505 171.34699999999998 152.93800000000002 L 182.253 216.519 L 125.15099999999998 186.501 C 122.96599999999998 185.352 120.35599999999998 185.352 118.17199999999998 186.501 L 61.06899999999998 216.519 L 71.97499999999998 152.938 C 72.39299999999999 150.505 71.58599999999998 148.023 69.81799999999998 146.29899999999998 L 23.618999999999986 101.26799999999997 L 87.46599999999998 91.98699999999997 C 89.90899999999998 91.63199999999996 92.02099999999999 90.09799999999997 93.11299999999999 87.88399999999997 L 121.66299999999998 30.034999999999975 L 150.213 87.88399999999997 C 151.305 90.09699999999997 153.417 91.63199999999998 155.85899999999998 91.98699999999997 L 219.70299999999997 101.26799999999997 L 173.504 146.299 z" stroke-linecap="round" />
</g>
</svg>