<svg width="10" height="11" viewBox="0 0 10 11" fill="none" xmlns="http://www.w3.org/2000/svg">
<path d="M6.9694 0.00439489C7.12746 0.070254 7.22844 0.228327 7.21527 0.39956C7.2504 1.49721 8.13729 2.37971 9.23494 2.41483C9.52033 2.42801 9.62571 2.53779 9.62571 2.81879V4.3994C9.65644 4.5838 9.52911 4.75943 9.3447 4.79017C9.30519 4.79456 9.26567 4.79456 9.22615 4.79017C8.56317 4.78138 7.90898 4.61893 7.31185 4.32476C7.2899 4.31159 7.25917 4.3028 7.23282 4.28963C7.21965 4.28963 7.21086 4.28963 7.19769 4.28963V4.41258C7.19769 5.44437 7.20647 6.47616 7.1933 7.50356C7.13622 9.48811 5.48097 11.0556 3.49642 10.9985C1.51186 10.9414 -0.0555672 9.28613 0.00151071 7.30158C0.0498074 5.61559 1.2616 4.18866 2.92125 3.86815C3.14078 3.83302 3.36031 3.81106 3.58423 3.80228C3.75547 3.78472 3.90476 3.90766 3.92232 4.07889C3.92232 4.09206 3.92232 4.10961 3.92232 4.12279C3.92671 4.69795 3.92671 5.26875 3.92232 5.83953C3.92671 6.01515 3.7862 6.16443 3.61058 6.16882C3.61058 6.16882 3.61057 6.16882 3.60618 6.16882C3.59301 6.16882 3.57983 6.16882 3.57105 6.16882C2.8905 6.18199 2.35046 6.74399 2.36803 7.42453C2.3812 8.10507 2.94322 8.64511 3.62376 8.62755C4.1682 8.61438 4.64236 8.24557 4.78725 7.71869C4.81799 7.59137 4.83118 7.45966 4.83118 7.32355C4.83557 5.02288 4.83557 2.72219 4.83118 0.421508C4.80922 0.241493 4.90581 0.0702497 5.07265 0L6.9694 0.00439489Z" fill="#636363"/>
</svg>
