<svg width="12" height="10" viewBox="0 0 12 10" fill="none" xmlns="http://www.w3.org/2000/svg">
<path d="M12 1.1545C11.5585 1.3505 11.084 1.4825 10.586 1.542C11.0945 1.2375 11.485 0.755 11.6685 0.18C11.193 0.462 10.666 0.667 10.105 0.7775C9.6565 0.299 9.016 0 8.308 0C6.7185 0 5.5505 1.483 5.9095 3.0225C3.864 2.92 2.05 1.94 0.8355 0.4505C0.1905 1.557 0.501 3.0045 1.597 3.7375C1.194 3.7245 0.814 3.614 0.4825 3.4295C0.4555 4.57 1.273 5.637 2.457 5.8745C2.1105 5.9685 1.731 5.9905 1.345 5.9165C1.658 6.8945 2.567 7.606 3.645 7.626C2.61 8.4375 1.306 8.8 0 8.646C1.0895 9.3445 2.384 9.752 3.774 9.752C8.345 9.752 10.9275 5.8915 10.7715 2.429C11.2525 2.0815 11.67 1.648 12 1.1545Z" fill="#636363"/>
</svg>
