<svg width="14" height="11" viewBox="0 0 14 11" fill="none" xmlns="http://www.w3.org/2000/svg">
<path d="M6.99508 10.736C6.17168 10.7255 5.34829 10.7255 4.52489 10.7047C3.78488 10.6943 3.03965 10.6369 2.31006 10.5275C2.00259 10.4702 1.70033 10.3972 1.39807 10.3034C1.02285 10.1783 0.710177 9.91776 0.527779 9.5686C0.319324 9.21423 0.18904 8.81818 0.136926 8.41169C0.0379098 7.74985 -0.00899764 7.07759 0.0014251 6.40532C0.0014251 5.58714 0.00141874 4.77416 0.0274756 3.95597C0.032687 3.37751 0.110869 2.80946 0.26721 2.25184C0.38186 1.83493 0.616366 1.45971 0.944682 1.17309C1.17919 0.990688 1.4606 0.87083 1.75244 0.818716C2.22667 0.704066 2.71131 0.631116 3.20118 0.599848C4.18613 0.516466 5.17632 0.50083 6.16127 0.50083C7.04199 0.50083 7.92269 0.495629 8.80863 0.511263C9.49131 0.526897 10.1688 0.558162 10.8515 0.605064C11.357 0.641544 11.8573 0.719694 12.3524 0.844767C12.9256 0.985474 13.3894 1.3972 13.6031 1.94439C13.7386 2.26228 13.8272 2.59579 13.8637 2.93453C13.9887 4.07582 14.0252 5.22233 13.9835 6.36363C13.9783 6.74406 13.9679 7.12449 13.9418 7.50492C13.9262 8.06775 13.8272 8.63057 13.65 9.16213C13.5301 9.47481 13.3425 9.76144 13.1028 9.99595C12.9048 10.1731 12.6651 10.2982 12.4045 10.3555C11.8729 10.4962 11.3309 10.5848 10.7838 10.6213C9.79881 10.7047 8.80865 10.7151 7.8237 10.7203H7.00551L6.99508 10.736ZM5.16588 5.59754V7.89055C5.16588 7.93746 5.17111 7.98436 5.18153 8.02605C5.18674 8.07817 5.23362 8.11463 5.28573 8.10421C5.29094 8.10421 5.30139 8.10423 5.3066 8.09902C5.33787 8.09381 5.36913 8.07817 5.39518 8.06254L6.44789 7.45278C7.22438 7.00461 8.00086 6.55645 8.77736 6.10827C9.00145 5.97799 9.22556 5.85292 9.44965 5.72264C9.54866 5.66531 9.54864 5.5767 9.45483 5.50895C9.4392 5.49853 9.42358 5.48811 9.40795 5.47769L7.94877 4.63345L5.36392 3.143C5.25969 3.08046 5.18152 3.12216 5.16588 3.24202C5.16588 3.26807 5.16588 3.29412 5.16588 3.32539V5.59754Z" fill="#636363"/>
</svg>
